<svg
  xmlns="http://www.w3.org/2000/svg"
  viewBox="0 0 129.55 129.55"
  width="60px"
  height="60px"
>
  <g>
    <defs></defs>
    <g
      id="1677594120284-8434687_Layer_2"
      data-name="Layer 2"
    >
      <g
        id="1677594120284-8434687_Layer_1-2"
        data-name="Layer 1"
      >
        <path
          className="cls-1"
          d="M127.61 80.45A64.76 64.76 0 1 1 80.43 1.94a64.75 64.75 0 0 1 47.18 78.51z"
          fill="#f39200"
        ></path>
        <path
          className="cls-2"
          d="M79.28 55.42c-2 8-14.37 3.95-18.38 2.95l3.54-14.19c4 1 16.93 2.87 14.84 11.24zm-2.2 22.9c-2.19 8.83-17 4.06-21.87 2.86l3.9-15.65c4.82 1.21 20.27 3.59 18 12.79zm16.24-22.77c1.29-8.62-5.27-13.25-14.25-16.34L82 27.53l-7.11-1.77-2.84 11.37c-1.87-.47-3.79-.91-5.7-1.34l2.85-11.45-7.1-1.77-2.91 11.67c-1.55-.35-3.07-.7-4.54-1.06l-9.8-2.45L43 38.29s5.28 1.21 5.17 1.28c2.88.72 3.4 2.62 3.31 4.13L48.12 57c.2.06.46.13.74.24l-.75-.18-4.65 18.63a2.58 2.58 0 0 1-3.21 1.7c.07.1-5.17-1.29-5.17-1.29l-3.53 8.14 9.25 2.3c1.72.43 3.41.88 5.07 1.31l-2.98 11.8 7.11 1.77 2.9-11.68c1.94.52 3.82 1 5.66 1.47l-2.9 11.62 7.11 1.78 2.94-11.79c12.12 2.29 21.23 1.37 25.07-9.59 3.09-8.83-.16-13.92-6.53-17.24 4.64-1.07 8.14-4.13 9.07-10.44z"
          fill="#fff"
        ></path>
      </g>
    </g>
  </g>
</svg>